# xmcd
#
# Track frame offsets:
#	150
#	11523
#	26020
#	37704
#	51693
#	66691
#	79953
#	95571
#	109295
#	120537
#	133588
#	144577
#	160455
#	174927
#	191458
#
# Disc length: 2790 seconds
#
# Revision: 0
# Processed by: cddbd v1.4PL0 Copyright (c) Steve Scherf et al.
# Submitted via: dBpowerAMP V4.0
#
DISCID=d40ae40f
DTITLE=Green Hill Instrumental - Bluegrass Jamboree
DYEAR=1900
DGENRE=
TTITLE0=Ballad of Jed Clampett
TTITLE1=Foggy Mountain Special
TTITLE2=Salty Dog Blues
TTITLE3=Orange Blossom Special
TTITLE4=Angel Band
TTITLE5=Farewell Blues
TTITLE6=Blackberry Blossom
TTITLE7=Little Cabin on the Hill
TTITLE8=Fire on the Mountain
TTITLE9=Footprints in the Snow
TTITLE10=Kentucky Waltz
TTITLE11=Under the Double Eagle
TTITLE12=Turkey in the Straw
TTITLE13=Jerusalem Ridge
TTITLE14=I Saw the Light/ Will the Circle be Unbroken
EXTD=
EXTT0=
EXTT1=
EXTT2=
EXTT3=
EXTT4=
EXTT5=
EXTT6=
EXTT7=
EXTT8=
EXTT9=
EXTT10=
EXTT11=
EXTT12=
EXTT13=
EXTT14=
PLAYORDER=
